<?xml version="1.0" encoding="UTF-8" standalone="no"?>
<svg
   xmlns:dc="http://purl.org/dc/elements/1.1/"
   xmlns:cc="http://creativecommons.org/ns#"
   xmlns:rdf="http://www.w3.org/1999/02/22-rdf-syntax-ns#"
   xmlns:svg="http://www.w3.org/2000/svg"
   xmlns="http://www.w3.org/2000/svg"
   xmlns:sodipodi="http://sodipodi.sourceforge.net/DTD/sodipodi-0.dtd"
   xmlns:inkscape="http://www.inkscape.org/namespaces/inkscape"
   version="1.1"
   id="svg2"
   xml:space="preserve"
   width="275.974"
   height="53.545334"
   viewBox="0 0 275.974 53.545334"
   sodipodi:docname="CineVideoLogoClean.svg"
   inkscape:version="1.0.2 (e86c870879, 2021-01-15, custom)"><metadata
     id="metadata8"><rdf:RDF><cc:Work
         rdf:about=""><dc:format>image/svg+xml</dc:format><dc:type
           rdf:resource="http://purl.org/dc/dcmitype/StillImage" /><dc:title></dc:title></cc:Work></rdf:RDF></metadata><defs
     id="defs6"><clipPath
       clipPathUnits="userSpaceOnUse"
       id="clipPath20"><path
         d="M 0,89.166 H 258.985 V 0 H 0 Z"
         id="path18" /></clipPath></defs><sodipodi:namedview
     pagecolor="#ffffff"
     bordercolor="#666666"
     borderopacity="1"
     objecttolerance="10"
     gridtolerance="10"
     guidetolerance="10"
     inkscape:pageopacity="0"
     inkscape:pageshadow="2"
     inkscape:window-width="1920"
     inkscape:window-height="1057"
     id="namedview4"
     showgrid="false"
     inkscape:zoom="3.3447884"
     inkscape:cx="137.27946"
     inkscape:cy="26.689331"
     inkscape:window-x="-8"
     inkscape:window-y="-8"
     inkscape:window-maximized="1"
     inkscape:current-layer="g10"
     fit-margin-top="0"
     fit-margin-left="0"
     fit-margin-right="0"
     fit-margin-bottom="0" /><g
     id="g10"
     inkscape:groupmode="layer"
     inkscape:label="logo cinevideo"
     transform="matrix(1.3333333,0,0,-1.3333333,-35.377199,86.133331)"><g
       id="g14"><g
         id="g16"
         clip-path="url(#clipPath20)"><g
           id="g22"
           transform="translate(139.8286,34.1289)"><path
             d="m 0,0 c -0.009,-0.119 -0.017,-0.239 -0.017,-0.359 0,-2.705 1.83,-4.652 4.361,-4.652 1.264,0 2.336,0.372 3.368,1.169 v 0.705 C 6.68,-3.934 5.608,-4.303 4.344,-4.303 1.923,-4.303 0.149,-2.521 0,0"
             style="fill:#939598;fill-opacity:1;fill-rule:nonzero;stroke:none"
             id="path24" /></g><g
           id="g26"
           transform="translate(140.7983,33.8662)"><path
             d="m 0,0 c 0.003,0.04 0.002,0.077 0.007,0.118 h 6.889 c 0,0.248 -0.019,0.481 -0.045,0.707 H 0.007 C -0.027,0.542 -0.029,0.266 0,0"
             style="fill:#939598;fill-opacity:1;fill-rule:nonzero;stroke:none"
             id="path28" /></g><g
           id="g30"
           transform="translate(143.8237,37.9971)"><path
             d="m 0,0 c -1.441,0 -2.569,-0.951 -2.9,-2.548 h 0.224 c 0.481,1.164 1.465,1.842 2.676,1.842 1.271,0 2.134,-0.609 2.566,-1.842 H 2.763 C 2.431,-0.835 1.495,0 0,0"
             style="fill:#939598;fill-opacity:1;fill-rule:nonzero;stroke:none"
             id="path32" /></g><g
           id="g34"
           transform="translate(26.603,35.3926)"><path
             d="m 0,0 c -0.041,-0.447 -0.07,-0.903 -0.07,-1.378 0,-5.618 4.003,-9.573 9.702,-9.573 2.002,0 4.425,0.511 5.702,1.105 v 2.57 C 14.057,-7.873 11.634,-8.381 9.632,-8.381 4.346,-8.381 0.525,-4.975 0,0"
             style="fill:#939598;fill-opacity:1;fill-rule:nonzero;stroke:none"
             id="path36" /></g><g
           id="g38"
           transform="translate(30.4048,36.9248)"><path
             d="m 0,0 c 0,-0.442 0.036,-0.864 0.101,-1.265 0.477,3.137 2.687,5.164 5.729,5.164 1.659,0 3.107,-0.425 5.276,-1.875 V 4.595 C 8.937,6.042 7.489,6.47 5.83,6.47 2.382,6.47 0,3.872 0,0"
             style="fill:#939598;fill-opacity:1;fill-rule:nonzero;stroke:none"
             id="path40" /></g><path
           d="m 44.875,24.822 h 3.788 v 2.572 h -3.788 z"
           style="fill:#939598;fill-opacity:1;fill-rule:nonzero;stroke:none"
           id="path42" /><g
           id="g44"
           transform="translate(61.228,43.8633)"><path
             d="m 0,0 c -1.66,0 -2.979,-0.769 -4.768,-2.768 v -2.569 c 1.789,2 3.108,2.767 4.768,2.767 2.298,0 3.747,-1.83 3.747,-4.641 v 2.57 C 3.747,-1.831 2.298,0 0,0"
             style="fill:#939598;fill-opacity:1;fill-rule:nonzero;stroke:none"
             id="path46" /></g><path
           d="m 64.975,24.822 h 3.784 v 2.572 h -3.784 z"
           style="fill:#939598;fill-opacity:1;fill-rule:nonzero;stroke:none"
           id="path48" /><path
           d="m 52.676,24.822 h 3.784 v 2.572 h -3.784 z"
           style="fill:#939598;fill-opacity:1;fill-rule:nonzero;stroke:none"
           id="path50" /><g
           id="g52"
           transform="translate(84.4546,36.3125)"><path
             d="m 0,0 h -9.616 c 0.002,0.021 0.009,0.041 0.012,0.06 h -0.097 c 0.154,-0.982 0.417,-1.835 0.778,-2.57 h 12.67 c 0,0.918 -0.057,1.775 -0.166,2.57 H -0.006 C -0.004,0.041 -0.002,0.021 0,0"
             style="fill:#939598;fill-opacity:1;fill-rule:nonzero;stroke:none"
             id="path54" /></g><g
           id="g56"
           transform="translate(71.0376,35.916)"><path
             d="m 0,0 c -0.042,-0.425 -0.071,-0.857 -0.071,-1.305 0,-5.278 3.319,-10.17 9.277,-10.17 3.234,0 5.318,0.723 7.615,2.255 v 2.57 C 14.524,-8.182 12.44,-8.904 9.206,-8.904 3.728,-8.904 0.49,-4.766 0,0"
             style="fill:#939598;fill-opacity:1;fill-rule:nonzero;stroke:none"
             id="path58" /></g><g
           id="g60"
           transform="translate(79.9888,41.0352)"><path
             d="M 0,0 C 1.758,0 3.075,-0.793 3.81,-2.154 H 4.466 C 4.341,0.74 2.68,2.57 0,2.57 c -2.896,0 -4.639,-1.705 -5.15,-4.724 h 0.925 C -3.341,-0.76 -1.929,0 0,0"
             style="fill:#939598;fill-opacity:1;fill-rule:nonzero;stroke:none"
             id="path62" /></g><g
           id="g64"
           transform="translate(110.9507,43.6914)"><path
             d="m 0,0 c -1.233,0.041 -2.896,-1.021 -4.256,-2.425 v -2.569 c 1.36,1.402 3.023,2.466 4.256,2.424 2.171,0 3.955,-1.576 3.955,-4.469 v 2.57 C 3.955,-1.574 2.171,0 0,0"
             style="fill:#939598;fill-opacity:1;fill-rule:nonzero;stroke:none"
             id="path66" /></g><path
           d="m 90.906,24.822 h 3.79 v 2.572 h -3.79 z"
           style="fill:#939598;fill-opacity:1;fill-rule:nonzero;stroke:none"
           id="path68" /><path
           d="m 114.906,24.822 h 3.789 v 2.572 h -3.789 z"
           style="fill:#939598;fill-opacity:1;fill-rule:nonzero;stroke:none"
           id="path70" /><g
           id="g72"
           transform="translate(99.4614,43.6914)"><path
             d="m 0,0 c -1.917,0 -3.191,-0.597 -4.766,-2.425 v -2.569 c 1.575,1.829 2.849,2.424 4.766,2.424 1.87,0 3.445,-1.32 3.445,-4.425 v 2.569 C 3.445,-1.32 1.87,0 0,0"
             style="fill:#939598;fill-opacity:1;fill-rule:nonzero;stroke:none"
             id="path74" /></g><path
           d="m 102.907,24.822 h 3.788 v 2.572 h -3.788 z"
           style="fill:#939598;fill-opacity:1;fill-rule:nonzero;stroke:none"
           id="path76" /><g
           id="g78"
           transform="translate(131.3091,39.4316)"><path
             d="m 0,0 c 0,2.384 -1.15,3.361 -3.448,3.361 -2.084,0 -4.212,-0.977 -6.043,-3.146 v -2.058 c 1.831,2.171 3.959,3.152 6.043,3.152 1.943,0 3.06,-0.705 3.36,-2.36 L 0,-1.023 Z"
             style="fill:#939598;fill-opacity:1;fill-rule:nonzero;stroke:none"
             id="path80" /></g><g
           id="g82"
           transform="translate(131.2661,28.4541)"><path
             d="m 0,0 c -1.661,-1.319 -3.405,-1.957 -5.15,-1.957 -2.419,0 -4.142,1.645 -4.571,3.679 C -9.789,1.393 -9.83,1.046 -9.83,0.668 c 0,-2.468 1.872,-4.681 4.68,-4.681 1.745,0 3.489,0.637 5.15,1.957 0.339,-1.362 1.233,-1.957 2.894,-1.957 1.188,0 1.914,0.34 3.659,1.489 v 2.053 C 4.808,-1.618 4.082,-1.957 2.894,-1.957 1.233,-1.957 0.339,-1.36 0,0"
             style="fill:#939598;fill-opacity:1;fill-rule:nonzero;stroke:none"
             id="path84" /></g><g
           id="g86"
           transform="translate(125.2651,31.8574)"><path
             d="M 0,0 C 0,-0.393 0.071,-0.754 0.202,-1.08 0.896,0.545 3.313,1.479 6.044,2.414 V 4.469 C 2.809,3.362 0,2.256 0,0"
             style="fill:#939598;fill-opacity:1;fill-rule:nonzero;stroke:none"
             id="path88" /></g><g
           id="g90"
           transform="translate(156.5356,27.2676)"><path
             d="M 0,0 -7.502,16.919 H -8.641 L 0,-2.569 H 1.274 L 9.701,16.919 H 8.591 L 1.274,0 Z"
             style="fill:#939598;fill-opacity:1;fill-rule:nonzero;stroke:none"
             id="path92" /></g><g
           id="g94"
           transform="translate(174.5142,36.2773)"><path
             d="m 0,0 c -0.043,-0.389 -0.069,-0.786 -0.069,-1.195 0,-6.129 3.576,-10.002 9.276,-10.002 h 8.044 v 2.569 H 9.207 C 3.946,-8.628 0.501,-5.324 0,0"
             style="fill:#939598;fill-opacity:1;fill-rule:nonzero;stroke:none"
             id="path96" /></g><g
           id="g98"
           transform="translate(178.3159,37.0996)"><path
             d="m 0,0 c 0,-0.479 0.029,-0.94 0.084,-1.383 0.444,3.322 2.762,5.449 6.045,5.449 1.275,0 2.254,-0.211 3.532,-0.721 V 5.913 C 8.383,6.426 7.404,6.637 6.129,6.637 2.47,6.637 0,3.996 0,0"
             style="fill:#939598;fill-opacity:1;fill-rule:nonzero;stroke:none"
             id="path100" /></g><g
           id="g102"
           transform="translate(203.105,41.293)"><path
             d="M 0,0 C 1.761,0 3.076,-0.791 3.813,-2.153 H 4.469 C 4.342,0.74 2.679,2.57 0,2.57 c -2.894,0 -4.639,-1.703 -5.146,-4.723 h 0.924 C -3.339,-0.758 -1.926,0 0,0"
             style="fill:#939598;fill-opacity:1;fill-rule:nonzero;stroke:none"
             id="path104" /></g><g
           id="g106"
           transform="translate(207.5737,36.5723)"><path
             d="m 0,0 h -9.615 c 10e-4,0.018 0.009,0.037 0.009,0.057 h -0.095 c 0.153,-0.981 0.415,-1.836 0.779,-2.569 H 3.747 c 0,0.918 -0.059,1.773 -0.165,2.569 H -0.005 C -0.004,0.037 -0.002,0.018 0,0"
             style="fill:#939598;fill-opacity:1;fill-rule:nonzero;stroke:none"
             id="path108" /></g><g
           id="g110"
           transform="translate(194.1558,36.1738)"><path
             d="m 0,0 c -0.041,-0.424 -0.071,-0.857 -0.071,-1.307 0,-5.275 3.321,-10.169 9.276,-10.169 3.234,0 5.32,0.723 7.616,2.254 V -6.65 C 14.525,-8.184 12.439,-8.906 9.205,-8.906 3.728,-8.906 0.49,-4.767 0,0"
             style="fill:#939598;fill-opacity:1;fill-rule:nonzero;stroke:none"
             id="path112" /></g><g
           id="g114"
           transform="translate(223.1313,41.166)"><path
             d="m 0,0 c 3.366,0 5.885,-2.118 6.407,-5.19 0.065,0.436 0.104,0.895 0.104,1.376 0,3.703 -2.727,6.384 -6.511,6.384 -3.576,0 -6.172,-2.681 -6.172,-6.341 0,-0.472 0.038,-0.924 0.104,-1.356 C -5.559,-2.104 -3.166,0 0,0"
             style="fill:#939598;fill-opacity:1;fill-rule:nonzero;stroke:none"
             id="path116" /></g><g
           id="g118"
           transform="translate(223.1724,27.2676)"><path
             d="m 0,0 c -5.416,0 -9.411,3.623 -9.999,8.79 -0.052,-0.401 -0.086,-0.813 -0.086,-1.231 0,-5.873 4.213,-10.128 10.085,-10.128 6.127,0 10.341,4.084 10.341,10.128 0,0.421 -0.029,0.834 -0.08,1.234 C 9.688,3.492 5.665,0 0,0"
             style="fill:#939598;fill-opacity:1;fill-rule:nonzero;stroke:none"
             id="path120" /></g><g
           id="g122"
           transform="translate(143.8237,38.915)"><path
             d="m 0,0 c -2.32,0 -4.012,-1.869 -4.012,-4.438 0,-0.119 0.008,-0.237 0.017,-0.348 0.149,2.381 1.786,4.078 3.995,4.078 1.707,0 3.525,-1.098 3.825,-3.516 H 3.871 C 3.871,-1.306 1.864,0 0,0"
             style="fill:#d1d3d4;fill-opacity:1;fill-rule:nonzero;stroke:none"
             id="path124" /></g><g
           id="g126"
           transform="translate(140.9233,34.7441)"><path
             d="M 0,0 H 5.663 C 5.613,0.256 5.545,0.486 5.467,0.705 H 0.225 C 0.133,0.485 0.053,0.254 0,0"
             style="fill:#d1d3d4;fill-opacity:1;fill-rule:nonzero;stroke:none"
             id="path128" /></g><g
           id="g130"
           transform="translate(144.2886,30.0352)"><path
             d="M 0,0 C 1.168,0 2.123,0.387 3.252,1.303 V 2.01 C 2.123,1.094 1.168,0.705 0,0.705 -1.732,0.705 -3.304,2.01 -3.49,3.831 -3.687,1.65 -1.952,0 0,0"
             style="fill:#d1d3d4;fill-opacity:1;fill-rule:nonzero;stroke:none"
             id="path132" /></g><g
           id="g134"
           transform="translate(30.5054,35.6602)"><path
             d="m 0,0 c -0.064,-0.418 -0.101,-0.852 -0.101,-1.303 0,-3.959 2.554,-6.342 6.47,-6.342 1.617,0 3.149,0.424 5.063,1.278 v 2.57 C 9.518,-4.651 7.986,-5.074 6.369,-5.074 2.891,-5.074 0.493,-3.192 0,0"
             style="fill:#d1d3d4;fill-opacity:1;fill-rule:nonzero;stroke:none"
             id="path136" /></g><g
           id="g138"
           transform="translate(35.9819,44.3125)"><path
             d="M 0,0 C 2.21,0 3.7,-0.512 5.529,-1.316 V 1.253 C 3.7,2.06 2.21,2.57 0,2.57 c -5.789,0 -9.449,-4 -9.449,-10.299 0,-0.407 0.029,-0.802 0.07,-1.191 C -8.878,-3.425 -5.355,0 0,0"
             style="fill:#d1d3d4;fill-opacity:1;fill-rule:nonzero;stroke:none"
             id="path140" /></g><path
           d="m 44.875,43.93 h 3.788 v 2.57 h -3.788 z"
           style="fill:#d1d3d4;fill-opacity:1;fill-rule:nonzero;stroke:none"
           id="path142" /><g
           id="g144"
           transform="translate(62.2495,46.8828)"><path
             d="m 0,0 c -2.129,0 -4.256,-1.064 -5.701,-2.895 h -0.088 v 2.512 h -3.784 v -2.57 h 3.784 v -2.511 h 0.088 c 1.445,1.829 3.572,2.894 5.701,2.894 3.619,0 6.51,-2.467 6.51,-7.701 v 2.569 C 6.51,-2.467 3.619,0 0,0"
             style="fill:#d1d3d4;fill-opacity:1;fill-rule:nonzero;stroke:none"
             id="path146" /></g><g
           id="g148"
           transform="translate(79.9019,46.8828)"><path
             d="m 0,0 c -5.277,0 -8.936,-3.916 -8.936,-9.702 0,-0.427 0.03,-0.847 0.072,-1.265 0.511,5.059 3.995,8.397 8.864,8.397 4.402,0 7.421,-2.612 8.134,-7.941 H 8.3 C 8.3,-3.447 5.063,0 0,0"
             style="fill:#d1d3d4;fill-opacity:1;fill-rule:nonzero;stroke:none"
             id="path150" /></g><g
           id="g152"
           transform="translate(83.7983,38.8809)"><path
             d="M 0,0 H -8.034 C -8.468,-0.688 -8.776,-1.523 -8.947,-2.509 H 0.65 C 0.601,-1.539 0.376,-0.695 0,0"
             style="fill:#d1d3d4;fill-opacity:1;fill-rule:nonzero;stroke:none"
             id="path154" /></g><g
           id="g156"
           transform="translate(81.1792,28.0576)"><path
             d="M 0,0 C 2.299,0 4.468,0.853 6.68,2.3 V 4.868 C 4.468,3.422 2.299,2.569 0,2.569 c -2.713,0 -4.604,1.078 -5.647,3.176 H -6.426 C -5.829,1.958 -3.661,0 0,0"
             style="fill:#d1d3d4;fill-opacity:1;fill-rule:nonzero;stroke:none"
             id="path158" /></g><g
           id="g160"
           transform="translate(112.355,46.8828)"><path
             d="M 0,0 C -2.726,0 -4.726,-1.575 -6.384,-3.447 -7.662,-1.189 -9.66,0 -12.086,0 c -1.787,0 -3.617,-0.936 -5.573,-2.895 v 2.512 h -3.79 v -2.57 h 3.79 v -2.511 c 1.956,1.958 3.786,2.894 5.573,2.894 2.426,0 4.424,-1.192 5.702,-3.447 1.658,1.872 3.658,3.447 6.384,3.447 3.872,0 6.34,-2.978 6.34,-7.491 v 2.572 C 6.34,-2.979 3.872,0 0,0"
             style="fill:#d1d3d4;fill-opacity:1;fill-rule:nonzero;stroke:none"
             id="path162" /></g><g
           id="g164"
           transform="translate(135.0952,30.2402)"><path
             d="m 0,0 v -2.055 c 0,-0.726 0.253,-0.98 0.722,-0.98 0.383,0 1.15,0.385 2.002,1.023 V 0.043 C 1.872,-0.596 1.105,-0.979 0.722,-0.979 0.253,-0.979 0,-0.724 0,0"
             style="fill:#d1d3d4;fill-opacity:1;fill-rule:nonzero;stroke:none"
             id="path166" /></g><g
           id="g168"
           transform="translate(128.1606,44.3125)"><path
             d="m 0,0 c 3.872,0 6.935,-1.956 6.935,-6.297 v 2.056 c 0,4.339 -3.063,6.298 -6.935,6.298 -2.767,0 -4.853,-0.852 -6.343,-2.596 V -2.596 C -4.853,-0.852 -2.767,0 0,0"
             style="fill:#d1d3d4;fill-opacity:1;fill-rule:nonzero;stroke:none"
             id="path170" /></g><g
           id="g172"
           transform="translate(125.4673,30.7773)"><path
             d="m 0,0 c -0.127,-0.301 -0.202,-0.623 -0.202,-0.975 0,-1.574 1.15,-2.681 2.723,-2.681 1.194,0 2.299,0.596 3.321,1.574 v 2.057 C 4.82,-1.005 3.715,-1.599 2.521,-1.599 1.339,-1.599 0.399,-0.977 0,0"
             style="fill:#d1d3d4;fill-opacity:1;fill-rule:nonzero;stroke:none"
             id="path174" /></g><g
           id="g176"
           transform="translate(127.9468,35.1641)"><path
             d="m 0,0 3.362,1.193 v 1.02 c 0,0.369 -0.032,0.699 -0.088,1.004 L 0,2.057 C -3.064,0.949 -6.511,-0.2 -6.511,-3.986 c 0,-0.342 0.038,-0.678 0.11,-1.002 C -5.817,-2.033 -2.758,-0.997 0,0"
             style="fill:#d1d3d4;fill-opacity:1;fill-rule:nonzero;stroke:none"
             id="path178" /></g><g
           id="g180"
           transform="translate(162.1958,46.7578)"><path
             d="M 0,0 -5.022,-11.745 -10.172,0 h -4.129 l 1.139,-2.571 h 2.99 L -5.022,-14.314 0,-2.571 H 2.931 L 4.041,0 Z"
             style="fill:#d1d3d4;fill-opacity:1;fill-rule:nonzero;stroke:none"
             id="path182" /></g><g
           id="g184"
           transform="translate(178.3999,35.7168)"><path
             d="m 0,0 c -0.05,-0.381 -0.084,-0.777 -0.084,-1.188 0,-3.576 1.446,-6.255 5.83,-6.255 h 3.831 v 2.57 H 5.746 C 1.949,-4.873 0.358,-2.861 0,0"
             style="fill:#d1d3d4;fill-opacity:1;fill-rule:nonzero;stroke:none"
             id="path186" /></g><g
           id="g188"
           transform="translate(183.9761,44.5684)"><path
             d="M 0,0 C 1.276,0 2.468,-0.212 4.001,-0.764 V 1.807 C 2.468,2.357 1.276,2.571 0,2.571 c -5.574,0 -9.531,-3.958 -9.531,-9.487 0,-0.474 0.028,-0.93 0.069,-1.375 C -8.931,-3.395 -5.162,0 0,0"
             style="fill:#d1d3d4;fill-opacity:1;fill-rule:nonzero;stroke:none"
             id="path190" /></g><g
           id="g192"
           transform="translate(206.9175,39.1396)"><path
             d="M 0,0 H -8.034 C -8.469,-0.687 -8.775,-1.526 -8.95,-2.511 H 0.651 C 0.602,-1.542 0.377,-0.695 0,0"
             style="fill:#d1d3d4;fill-opacity:1;fill-rule:nonzero;stroke:none"
             id="path194" /></g><g
           id="g196"
           transform="translate(204.2993,28.3145)"><path
             d="m 0,0 c 2.296,0 4.467,0.852 6.678,2.299 v 2.57 C 4.467,3.421 2.296,2.57 0,2.57 c -2.714,0 -4.604,1.076 -5.647,3.176 h -0.78 C -5.833,1.958 -3.662,0 0,0"
             style="fill:#d1d3d4;fill-opacity:1;fill-rule:nonzero;stroke:none"
             id="path198" /></g><g
           id="g200"
           transform="translate(203.019,47.1396)"><path
             d="m 0,0 c -5.275,0 -8.935,-3.914 -8.935,-9.702 0,-0.426 0.031,-0.848 0.072,-1.264 0.511,5.061 3.998,8.395 8.863,8.395 4.407,0 7.425,-2.609 8.137,-7.94 H 8.302 C 8.302,-3.445 5.064,0 0,0"
             style="fill:#d1d3d4;fill-opacity:1;fill-rule:nonzero;stroke:none"
             id="path202" /></g><g
           id="g204"
           transform="translate(223.1724,44.5684)"><path
             d="m 0,0 c 5.553,0 9.677,-3.499 10.261,-8.508 0.049,0.436 0.08,0.877 0.08,1.335 0,5.661 -4.34,9.744 -10.341,9.744 -5.704,0 -10.085,-4.255 -10.085,-9.744 0,-0.458 0.034,-0.9 0.086,-1.338 C -9.398,-3.63 -5.268,0 0,0"
             style="fill:#d1d3d4;fill-opacity:1;fill-rule:nonzero;stroke:none"
             id="path206" /></g><g
           id="g208"
           transform="translate(223.1313,28.1035)"><path
             d="M 0,0 C 3.999,0 6.511,2.555 6.511,6.678 6.511,7.09 6.472,7.488 6.407,7.872 5.899,4.564 3.533,2.569 0,2.569 -3.233,2.569 -5.565,4.662 -6.068,7.936 -6.134,7.545 -6.172,7.141 -6.172,6.723 -6.172,2.681 -3.66,0 0,0"
             style="fill:#d1d3d4;fill-opacity:1;fill-rule:nonzero;stroke:none"
             id="path210" /></g><g
           id="g212"
           transform="translate(146.5864,34.7441)"><path
             d="m 0,0 h -5.663 c 0.053,0.254 0.133,0.485 0.225,0.705 h -0.225 c 0.331,1.597 1.459,2.548 2.9,2.548 1.495,0 2.431,-0.835 2.763,-2.548 H -0.196 C -0.118,0.486 -0.05,0.256 0,0 m -2.763,3.463 c -2.209,0 -3.845,-1.697 -3.995,-4.078 0.15,-2.522 1.923,-4.303 4.344,-4.303 1.265,0 2.336,0.369 3.368,1.166 v 0.346 c -1.129,-0.916 -2.084,-1.303 -3.252,-1.303 -1.952,0 -3.686,1.65 -3.49,3.831 -0.029,0.266 -0.027,0.542 0.007,0.825 h 6.844 c -0.3,2.418 -2.119,3.516 -3.826,3.516"
             style="fill:#231f20;fill-opacity:1;fill-rule:nonzero;stroke:none"
             id="path214" /></g><g
           id="g216"
           transform="translate(30.4048,34.3574)"><path
             d="M 0,0 C 0,0.451 0.036,0.885 0.101,1.303 0.036,1.703 0,2.125 0,2.567 c 0,3.872 2.382,6.47 5.83,6.47 1.659,0 3.107,-0.428 5.276,-1.875 V 8.639 C 9.277,9.443 7.787,9.955 5.577,9.955 c -5.355,0 -8.878,-3.425 -9.379,-8.92 0.526,-4.974 4.346,-8.381 9.632,-8.381 2.002,0 4.425,0.508 5.702,1.105 v 1.177 C 9.618,-5.918 8.087,-6.342 6.47,-6.342 2.554,-6.342 0,-3.959 0,0"
             style="fill:#231f20;fill-opacity:1;fill-rule:nonzero;stroke:none"
             id="path218" /></g><path
           d="m 44.875,27.395 h 3.788 V 43.93 h -3.788 z"
           style="fill:#231f20;fill-opacity:1;fill-rule:nonzero;stroke:none"
           id="path220" /><g
           id="g222"
           transform="translate(62.2495,44.3125)"><path
             d="m 0,0 c -2.129,0 -4.256,-1.064 -5.701,-2.894 h -0.088 v 2.511 h -3.784 v -16.535 h 3.784 v 11.132 2.569 c 1.789,1.999 3.107,2.768 4.768,2.768 2.297,0 3.747,-1.831 3.747,-4.641 v -2.57 -9.258 H 6.51 v 9.217 C 6.51,-2.467 3.619,0 0,0"
             style="fill:#231f20;fill-opacity:1;fill-rule:nonzero;stroke:none"
             id="path224" /></g><g
           id="g226"
           transform="translate(79.9019,44.3125)"><path
             d="m 0,0 c -4.869,0 -8.353,-3.338 -8.864,-8.396 0.49,-4.766 3.727,-8.905 9.206,-8.905 3.234,0 5.318,0.723 7.615,2.254 v 1.092 c -2.212,-1.447 -4.381,-2.3 -6.68,-2.3 -3.661,0 -5.829,1.958 -6.425,5.745 h 0.778 c -0.361,0.735 -0.624,1.588 -0.778,2.57 h 0.097 c 0.171,0.985 0.48,1.821 0.913,2.508 h -0.925 c 0.511,3.02 2.254,4.725 5.15,4.725 2.68,0 4.341,-1.83 4.466,-4.725 H 3.896 C 4.272,-6.127 4.497,-6.971 4.547,-7.94 H 8.134 C 7.421,-2.611 4.402,0 0,0"
             style="fill:#231f20;fill-opacity:1;fill-rule:nonzero;stroke:none"
             id="path228" /></g><g
           id="g230"
           transform="translate(112.355,44.3125)"><path
             d="M 0,0 C -2.726,0 -4.726,-1.574 -6.384,-3.446 -7.662,-1.191 -9.66,0 -12.086,0 c -1.787,0 -3.617,-0.936 -5.573,-2.894 v 2.511 h -3.79 v -16.535 h 3.79 v 11.303 2.569 c 1.574,1.828 2.848,2.425 4.765,2.425 1.871,0 3.446,-1.32 3.446,-4.426 v -2.569 -9.302 h 3.788 v 11.303 2.569 c 1.36,1.403 3.022,2.466 4.256,2.425 2.171,0 3.955,-1.574 3.955,-4.469 v -2.57 -9.258 H 6.34 V -7.49 C 6.34,-2.978 3.872,0 0,0"
             style="fill:#231f20;fill-opacity:1;fill-rule:nonzero;stroke:none"
             id="path232" /></g><g
           id="g234"
           transform="translate(131.3091,34.2715)"><path
             d="m 0,0 v -3.52 -2.056 c -1.021,-0.978 -2.127,-1.574 -3.321,-1.574 -1.573,0 -2.723,1.107 -2.723,2.681 0,0.352 0.075,0.674 0.202,0.975 -0.131,0.326 -0.202,0.687 -0.202,1.08 0,2.256 2.809,3.362 6.044,4.469 z m 3.786,-6.086 v 2.055 7.775 c 0,4.341 -3.062,6.297 -6.934,6.297 -2.767,0 -4.853,-0.852 -6.343,-2.596 V 5.375 C -7.66,7.544 -5.532,8.521 -3.448,8.521 -1.15,8.521 0,7.544 0,5.16 V 4.137 L -0.088,4.109 C -0.032,3.805 0,3.475 0,3.105 V 2.086 L -3.362,0.893 c -2.758,-0.997 -5.818,-2.034 -6.402,-4.989 0.429,-2.033 2.152,-3.678 4.571,-3.678 1.745,0 3.489,0.637 5.15,1.957 0.339,-1.361 1.233,-1.957 2.894,-1.957 1.188,0 1.914,0.338 3.659,1.486 v 0.245 C 5.658,-6.682 4.892,-7.066 4.508,-7.066 c -0.469,0 -0.722,0.253 -0.722,0.98"
             style="fill:#231f20;fill-opacity:1;fill-rule:nonzero;stroke:none"
             id="path236" /></g><g
           id="g238"
           transform="translate(157.1733,32.4434)"><path
             d="M 0,0 -5.149,11.743 H -8.14 L -0.638,-5.176 H 0.637 L 7.953,11.743 H 5.022 Z"
             style="fill:#231f20;fill-opacity:1;fill-rule:nonzero;stroke:none"
             id="path240" /></g><g
           id="g242"
           transform="translate(187.9771,40.4443)"><path
             d="m 0,0 v -9.601 -2.57 h -3.831 c -4.384,0 -5.83,2.68 -5.83,6.256 0,0.41 0.034,0.807 0.084,1.187 -0.055,0.443 -0.084,0.905 -0.084,1.383 0,3.996 2.47,6.637 6.129,6.637 1.275,0 2.254,-0.211 3.532,-0.724 z M 0,5.931 V 3.36 c -1.533,0.552 -2.725,0.764 -4.001,0.764 -5.162,0 -8.931,-3.395 -9.462,-8.291 0.501,-5.324 3.946,-8.628 9.207,-8.628 H 3.788 V 13.66 H 0 Z"
             style="fill:#231f20;fill-opacity:1;fill-rule:nonzero;stroke:none"
             id="path244" /></g><g
           id="g246"
           transform="translate(203.019,44.5684)"><path
             d="m 0,0 c -4.865,0 -8.352,-3.334 -8.863,-8.395 0.49,-4.766 3.727,-8.906 9.205,-8.906 3.234,0 5.32,0.723 7.616,2.256 v 1.09 c -2.211,-1.447 -4.382,-2.299 -6.678,-2.299 -3.662,0 -5.833,1.958 -6.426,5.746 h 0.779 c -0.364,0.733 -0.626,1.588 -0.779,2.569 h 0.094 c 0.175,0.984 0.482,1.824 0.916,2.51 h -0.925 c 0.508,3.021 2.253,4.724 5.147,4.724 2.679,0 4.342,-1.83 4.469,-4.724 H 3.898 C 4.275,-6.124 4.5,-6.971 4.55,-7.939 H 8.137 C 7.425,-2.608 4.407,0 0,0"
             style="fill:#231f20;fill-opacity:1;fill-rule:nonzero;stroke:none"
             id="path248" /></g><g
           id="g250"
           transform="translate(216.9595,37.3955)"><path
             d="m 0,0 c 0,3.659 2.596,6.341 6.172,6.341 3.784,0 6.511,-2.682 6.511,-6.385 0,-0.48 -0.039,-0.939 -0.104,-1.376 0.065,-0.384 0.104,-0.782 0.104,-1.194 0,-4.123 -2.512,-6.678 -6.511,-6.678 C 2.512,-9.292 0,-6.611 0,-2.569 0,-2.151 0.038,-1.747 0.104,-1.356 0.038,-0.925 0,-0.473 0,0 m 6.213,-10.128 c 5.665,0 9.687,3.492 10.261,8.793 -0.584,5.009 -4.708,8.508 -10.261,8.508 -5.268,0 -9.399,-3.63 -9.999,-8.511 0.588,-5.167 4.583,-8.79 9.999,-8.79"
             style="fill:#231f20;fill-opacity:1;fill-rule:nonzero;stroke:none"
             id="path252" /></g><g
           id="g254"
           transform="translate(29.7856,55.0303)"><path
             d="m 0,0 h 2.836 c 2.426,0 4.571,1.555 4.571,4.393 0,2.586 -1.879,4.391 -4.613,4.391 L 0,8.784 Z m 2.747,9.435 c 4.29,0 5.501,-2.824 5.501,-5.042 0,-2.337 -1.374,-5.044 -5.365,-5.044 H -0.786 V 9.435 Z"
             style="fill:#231f20;fill-opacity:1;fill-rule:nonzero;stroke:none"
             id="path256" /></g><g
           id="g258"
           transform="translate(45.9595,63.8145)"><path
             d="m 0,0 h -4.716 v -4.036 h 4.6 v -0.65 h -4.6 V -8.784 H 0.118 V -9.436 H -5.501 V 0.65 H 0 Z"
             style="fill:#231f20;fill-opacity:1;fill-rule:nonzero;stroke:none"
             id="path260" /></g><g
           id="g262"
           transform="translate(50.3062,59.7471)"><path
             d="m 0,0 h 1.878 c 1.877,0 2.571,0.904 2.571,2.042 0,1.092 -0.709,2.025 -2.484,2.025 H 0 Z m 1.994,4.718 c 2.366,0 3.299,-1.211 3.299,-2.66 0,-1.301 -0.754,-2.707 -3.373,-2.707 H 0 V -5.368 H -0.785 V 4.718 Z"
             style="fill:#231f20;fill-opacity:1;fill-rule:nonzero;stroke:none"
             id="path264" /></g><g
           id="g266"
           transform="translate(61.3491,63.2676)"><path
             d="M 0,0 -2.158,-4.745 H 2.173 Z M 4.879,-8.889 H 4.066 L 2.471,-5.396 H -2.454 L -4.05,-8.889 h -0.813 l 4.657,10.16 h 0.428 z"
             style="fill:#231f20;fill-opacity:1;fill-rule:nonzero;stroke:none"
             id="path268" /></g><g
           id="g270"
           transform="translate(70.0864,59.8672)"><path
             d="m 0,0 h 1.67 c 1.774,0 2.635,0.768 2.635,1.98 0,1.139 -0.815,1.967 -2.663,1.967 H 0 Z m 1.804,4.598 c 2.47,0 3.342,-1.257 3.342,-2.602 0,-1.168 -0.637,-1.982 -1.922,-2.453 0.472,-0.255 0.873,-0.831 1.345,-1.539 L 6.847,-5.488 H 5.931 L 4.17,-2.721 C 2.957,-0.813 2.573,-0.65 1.36,-0.65 H 0 V -5.488 H -0.782 V 4.598 Z"
             style="fill:#231f20;fill-opacity:1;fill-rule:nonzero;stroke:none"
             id="path272" /></g><g
           id="g274"
           transform="translate(86.4233,63.8145)"><path
             d="M 0,0 H -3.783 V -9.436 H -4.569 V 0 H -8.354 V 0.65 H 0 Z"
             style="fill:#231f20;fill-opacity:1;fill-rule:nonzero;stroke:none"
             id="path276" /></g><g
           id="g278"
           transform="translate(91.7729,63.2676)"><path
             d="M 0,0 -2.156,-4.745 H 2.178 Z M 4.883,-8.889 H 4.07 l -1.599,3.493 h -4.923 l -1.597,-3.493 h -0.814 l 4.659,10.16 h 0.431 z"
             style="fill:#231f20;fill-opacity:1;fill-rule:nonzero;stroke:none"
             id="path280" /></g><g
           id="g282"
           transform="translate(108.1714,64.4648)"><path
             d="M 0,0 H 0.785 V -10.086 H 0 v 8.947 h -0.029 l -3.815,-4.716 -3.815,4.716 h -0.027 v -8.947 H -8.474 V 0 h 0.788 l 3.842,-4.687 z"
             style="fill:#231f20;fill-opacity:1;fill-rule:nonzero;stroke:none"
             id="path284" /></g><g
           id="g286"
           transform="translate(118.6382,63.8145)"><path
             d="m 0,0 h -4.717 v -4.036 h 4.6 v -0.65 h -4.6 V -8.784 H 0.118 V -9.436 H -5.5 V 0.65 H 0 Z"
             style="fill:#231f20;fill-opacity:1;fill-rule:nonzero;stroke:none"
             id="path288" /></g><g
           id="g290"
           transform="translate(131.2935,54.3789)"><path
             d="M 0,0 H -0.649 L -8.31,8.815 V 0 h -0.784 v 10.086 h 0.666 l 7.645,-8.813 v 8.813 H 0 Z"
             style="fill:#231f20;fill-opacity:1;fill-rule:nonzero;stroke:none"
             id="path292" /></g><g
           id="g294"
           transform="translate(142.7085,63.8145)"><path
             d="M 0,0 H -3.787 V -9.436 H -4.568 V 0 H -8.354 V 0.65 H 0 Z"
             style="fill:#231f20;fill-opacity:1;fill-rule:nonzero;stroke:none"
             id="path296" /></g><g
           id="g298"
           transform="translate(149.6128,63.875)"><path
             d="m 0,0 c -2.529,0 -4.51,-1.938 -4.51,-4.452 0,-2.513 1.981,-4.45 4.51,-4.45 2.526,0 4.479,1.937 4.479,4.45 C 4.479,-1.938 2.526,0 0,0 m -0.031,-9.627 c -2.987,0 -5.322,2.275 -5.322,5.175 0,2.896 2.335,5.177 5.322,5.177 3.001,0 5.352,-2.281 5.352,-5.177 0,-2.9 -2.351,-5.175 -5.352,-5.175"
             style="fill:#231f20;fill-opacity:1;fill-rule:nonzero;stroke:none"
             id="path300" /></g><g
           id="g302"
           transform="translate(165.4292,55.0303)"><path
             d="m 0,0 h 2.838 c 2.428,0 4.57,1.555 4.57,4.393 0,2.586 -1.879,4.391 -4.613,4.391 L 0,8.784 Z m 2.749,9.435 c 4.292,0 5.502,-2.824 5.502,-5.042 0,-2.337 -1.374,-5.044 -5.367,-5.044 H -0.783 V 9.435 Z"
             style="fill:#231f20;fill-opacity:1;fill-rule:nonzero;stroke:none"
             id="path304" /></g><g
           id="g306"
           transform="translate(181.2974,63.8145)"><path
             d="m 0,0 h -4.72 v -4.036 h 4.6 v -0.65 h -4.6 V -8.784 H 0.116 V -9.436 H -5.502 V 0.65 H 0 Z"
             style="fill:#231f20;fill-opacity:1;fill-rule:nonzero;stroke:none"
             id="path308" /></g><g
           id="g310"
           transform="translate(168.936,42.2695)"><path
             d="M 0,0 1.887,1.886 3.772,3.773 V 4.277 H 2.017 L 0,2.261 Z"
             style="fill:#939598;fill-opacity:1;fill-rule:nonzero;stroke:none"
             id="path312" /></g><path
           d="m 167.912,24.647 h 3.773 v 2.56 h -3.773 z"
           style="fill:#939598;fill-opacity:1;fill-rule:nonzero;stroke:none"
           id="path314" /><g
           id="g316"
           transform="translate(172.7085,48.8086)"><path
             d="m 0,0 h -3.772 v -2.262 h 2.016 L 0,-0.504 Z"
             style="fill:#d1d3d4;fill-opacity:1;fill-rule:nonzero;stroke:none"
             id="path318" /></g><g
           id="g320"
           transform="translate(168.936,44.5303)"><path
             d="M 0,0 2.017,2.017 H 0 Z"
             style="fill:#231f20;fill-opacity:1;fill-rule:nonzero;stroke:none"
             id="path322" /></g><g
           id="g324"
           transform="translate(168.936,42.2695)"><path
             d="M 0,0 -1.024,-1.023 V -3.586 L 2.749,0.188 V 2.749 L 1.887,1.886 Z"
             style="fill:#d1d3d4;fill-opacity:1;fill-rule:nonzero;stroke:none"
             id="path326" /></g><g
           id="g328"
           transform="translate(167.9116,27.207)"><path
             d="M 0,0 H 3.773 V 15.251 L 0,11.477 Z"
             style="fill:#231f20;fill-opacity:1;fill-rule:nonzero;stroke:none"
             id="path330" /></g></g></g></g></svg>
