<?xml version="1.0" encoding="UTF-8" standalone="no"?>
<svg
   xmlns:dc="http://purl.org/dc/elements/1.1/"
   xmlns:cc="http://creativecommons.org/ns#"
   xmlns:rdf="http://www.w3.org/1999/02/22-rdf-syntax-ns#"
   xmlns:svg="http://www.w3.org/2000/svg"
   xmlns="http://www.w3.org/2000/svg"
   xmlns:sodipodi="http://sodipodi.sourceforge.net/DTD/sodipodi-0.dtd"
   xmlns:inkscape="http://www.inkscape.org/namespaces/inkscape"
   viewBox="0 0 105.124 53.098667"
   height="53.098667"
   width="105.124"
   xml:space="preserve"
   id="svg2"
   version="1.1"
   sodipodi:docname="LogoUFF.svg"
   inkscape:version="0.92.3 (2405546, 2018-03-11)"
   inkscape:export-filename="C:\Users\cosme\cosmefc@id.uff.br\STI\UFF\IdentidadeUFF\LogoUFF.png"
   inkscape:export-xdpi="127.85"
   inkscape:export-ydpi="127.85"><sodipodi:namedview
     pagecolor="#ffffff"
     bordercolor="#666666"
     borderopacity="1"
     objecttolerance="10"
     gridtolerance="10"
     guidetolerance="10"
     inkscape:pageopacity="0"
     inkscape:pageshadow="2"
     inkscape:window-width="1920"
     inkscape:window-height="1057"
     id="namedview65"
     showgrid="false"
     fit-margin-top="0"
     fit-margin-left="0"
     fit-margin-right="0"
     fit-margin-bottom="0"
     showguides="true"
     inkscape:guide-bbox="true"
     inkscape:zoom="12.575625"
     inkscape:cx="52.562"
     inkscape:cy="26.549334"
     inkscape:window-x="-8"
     inkscape:window-y="1072"
     inkscape:window-maximized="1"
     inkscape:current-layer="svg2" /><metadata
     id="metadata8"><rdf:RDF><cc:Work
         rdf:about=""><dc:format>image/svg+xml</dc:format><dc:type
           rdf:resource="http://purl.org/dc/dcmitype/StillImage" /><dc:title /></cc:Work></rdf:RDF></metadata><defs
     id="defs6"><clipPath
       id="clipPath18"
       clipPathUnits="userSpaceOnUse"><path
         id="path16"
         d="M 0,595.276 H 419.528 V 0 H 0 Z"
         inkscape:connector-curvature="0" /></clipPath></defs><path
     sodipodi:nodetypes="cccccccccccccccccccccccccccccccsscccccccccccccc"
     id="path22"
     style="fill:#005baa;fill-opacity:1;fill-rule:evenodd;stroke:none;stroke-width:1.33333325"
     d="m 61.223998,17.669333 h 8.794666 v -4.630667 h -0.02933 C 69.989331,5.7631046 64.147688,1.084e-7 56.863998,1.084e-7 49.579977,1.084e-7 43.738665,5.8491249 43.738665,13.125333 c 0.01787,2.943601 0.008,5.935889 0.008,8.894667 L 30.487,22.019667 30.4787,39.974666 c 0,2.400297 -1.964477,4.221333 -4.365333,4.221333 -2.374097,0 -4.34,-1.824105 -4.34,-4.221333 -0.0023,-6.270496 -0.0013,-12.586848 -0.0013,-17.954999 -7.260534,-0.0049 -14.5027903,0 -21.7719994694,0 v 8.762999 H 13.022666 v 9.192 l -0.0013,10e-7 c 0,7.222709 5.841125,13.124 13.117333,13.123998 7.278541,2e-6 13.192334,-5.842609 13.192334,-13.123998 0,-4.876488 -3.35e-4,-9.180001 -3.35e-4,-9.180001 h 4.416 v 22.304001 h 8.730667 V 30.794666 h 17.545332 v 22.304001 h 8.785334 V 30.794666 H 105.124 V 22.02 H 78.807998 v -8.813334 c 0,-2.398666 1.962476,-4.3679994 4.365333,-4.3679994 2.404916,0 4.357669,1.9870384 4.357669,4.3879994 3e-6,1.455354 0,2.945427 0,4.413334 h 8.777 v -4.416 c 0,-7.282305 -5.864571,-13.22041723 -13.142107,-13.22041723 -7.282702,0 -13.100562,5.75973893 -13.100562,13.03508323 v 0.008 h -0.04267 V 22.02 H 52.477332 v -8.860333 c 0,-2.38797 2.001325,-4.3890004 4.390666,-4.3890004 2.390284,0 4.361687,2.0010304 4.358,4.3890004 0,0.064 -0.002,4.509666 -0.002,4.509666 z"
     inkscape:connector-curvature="0" /></svg>