<?xml version="1.0" encoding="UTF-8" standalone="no"?>
<svg
   xmlns:dc="http://purl.org/dc/elements/1.1/"
   xmlns:cc="http://creativecommons.org/ns#"
   xmlns:rdf="http://www.w3.org/1999/02/22-rdf-syntax-ns#"
   xmlns:svg="http://www.w3.org/2000/svg"
   xmlns="http://www.w3.org/2000/svg"
   xmlns:sodipodi="http://sodipodi.sourceforge.net/DTD/sodipodi-0.dtd"
   xmlns:inkscape="http://www.inkscape.org/namespaces/inkscape"
   version="1.1"
   id="svg2"
   xml:space="preserve"
   width="356.97147"
   height="237.75507"
   viewBox="0 0 356.97146 237.75507"
   sodipodi:docname="PPGCINE_Logo_2017_Vertical.svg"
   inkscape:version="1.0.2 (e86c870879, 2021-01-15, custom)"><metadata
     id="metadata8"><rdf:RDF><cc:Work
         rdf:about=""><dc:format>image/svg+xml</dc:format><dc:type
           rdf:resource="http://purl.org/dc/dcmitype/StillImage" /><dc:title></dc:title></cc:Work></rdf:RDF></metadata><defs
     id="defs6"><clipPath
       clipPathUnits="userSpaceOnUse"
       id="clipPath18"><path
         d="M 0,595.28 H 595.276 V 0 H 0 Z"
         id="path16" /></clipPath></defs><sodipodi:namedview
     pagecolor="#ffffff"
     bordercolor="#666666"
     borderopacity="1"
     objecttolerance="10"
     gridtolerance="10"
     guidetolerance="10"
     inkscape:pageopacity="0"
     inkscape:pageshadow="2"
     inkscape:window-width="1920"
     inkscape:window-height="1057"
     id="namedview4"
     showgrid="false"
     inkscape:zoom="1.1213211"
     inkscape:cx="186.10002"
     inkscape:cy="113.07324"
     inkscape:window-x="-8"
     inkscape:window-y="-8"
     inkscape:window-maximized="1"
     inkscape:current-layer="g10"
     fit-margin-top="0"
     fit-margin-left="0"
     fit-margin-right="0"
     fit-margin-bottom="0" /><g
     id="g10"
     inkscape:groupmode="layer"
     inkscape:label="PPGCINE_Logo_2017_CMYK"
     transform="matrix(1.3333333,0,0,-1.3333333,-210.75066,545.59879)"><g
       id="g12"><g
         id="g14"
         clip-path="url(#clipPath18)"><g
           id="g20"
           transform="translate(171.8663,245.6322)"><path
             d="M 0,0 C 4.405,0 6.143,1.809 6.143,5.145 6.143,7.918 4.566,9.927 0,9.927 H -8.85 V 0 Z m 0,-4.059 h -8.85 v -10.007 h -4.809 V 14.026 H 0 c 7.799,0 10.991,-3.497 10.991,-8.881 C 10.991,0 7.597,-4.059 0,-4.059"
             style="fill:#231f20;fill-opacity:1;fill-rule:nonzero;stroke:none"
             id="path22" /></g><g
           id="g24"
           transform="translate(203.3834,245.6322)"><path
             d="M 0,0 C 4.404,0 6.142,1.809 6.142,5.145 6.142,7.918 4.566,9.927 0,9.927 H -8.85 V 0 Z m 0,-4.059 h -8.85 v -10.007 h -4.808 V 14.026 H 0 c 7.799,0 10.991,-3.497 10.991,-8.881 C 10.991,0 7.597,-4.059 0,-4.059"
             style="fill:#231f20;fill-opacity:1;fill-rule:nonzero;stroke:none"
             id="path26" /></g><g
           id="g28"
           transform="translate(248.7603,245.7533)"><path
             d="m 0,0 v -14.188 h -2.869 l -1.697,3.095 h -0.162 c -1.535,-2.371 -4.041,-3.657 -8.405,-3.657 -8.607,0 -15.598,5.988 -15.598,14.549 0,8.762 6.991,14.749 15.598,14.749 5.496,0 9.011,-1.848 12.002,-5.305 L -4.647,6.792 c -2.102,2.572 -5.132,3.697 -8.486,3.697 -5.94,0 -10.789,-3.496 -10.789,-10.69 0,-7.033 4.849,-10.489 10.789,-10.489 5.698,0 8.324,2.933 8.324,9.002 V 0 Z"
             style="fill:#231f20;fill-opacity:1;fill-rule:nonzero;stroke:none"
             id="path30" /></g><g
           id="g32"
           transform="translate(283.7125,236.1478)"><path
             d="m 0,0 c -3.152,-3.698 -7.718,-5.265 -12.204,-5.265 -8.809,0 -15.517,6.029 -15.517,14.628 0,8.763 6.869,14.75 15.517,14.75 4.85,0 9.254,-1.928 12.204,-5.304 L -5.617,14.79 c -1.576,1.889 -3.758,3.014 -6.627,3.014 -5.254,0 -8.365,-3.577 -8.365,-8.4 0,-4.863 3.152,-8.399 8.405,-8.399 2.546,0 4.93,0.844 6.627,2.893 z"
             style="fill:#231f20;fill-opacity:1;fill-rule:nonzero;stroke:none"
             id="path34" /></g><path
           d="m 298.459,231.566 h -7.071 v 28.093 h 7.071 z"
           style="fill:#231f20;fill-opacity:1;fill-rule:nonzero;stroke:none"
           id="path36" /><g
           id="g38"
           transform="translate(333.816,259.6586)"><path
             d="m 0,0 v -28.093 h -7.112 l -11.678,16.438 h -0.162 v -16.438 h -7.112 V 0 h 7.112 l 11.719,-16.92 h 0.121 V 0 Z"
             style="fill:#231f20;fill-opacity:1;fill-rule:nonzero;stroke:none"
             id="path40" /></g><g
           id="g42"
           transform="translate(349.6939,253.5902)"><path
             d="M 0,0 V -4.983 H 13.214 V -10.53 H 0 v -5.425 h 14.992 v -6.069 H -7.112 V 6.068 H 14.992 V 0 Z"
             style="fill:#231f20;fill-opacity:1;fill-rule:nonzero;stroke:none"
             id="path44" /></g><g
           id="g46"
           transform="translate(388.4244,248.6234)"><path
             d="m 0,0 v -9.094 c 0,-5.044 -2.56,-8.646 -7.728,-8.646 -5.192,0 -7.776,3.602 -7.776,8.646 V 0 h 2.956 v -9.094 c 0,-4 1.913,-6.136 4.82,-6.136 2.784,0 4.771,2.136 4.771,6.136 V 0 Z"
             style="fill:#231f20;fill-opacity:1;fill-rule:nonzero;stroke:none"
             id="path48" /></g><g
           id="g50"
           transform="translate(397.0972,246.1136)"><path
             d="M 0,0 V -4.92 H 9.441 V -7.429 H 0 v -7.428 H -2.957 V 2.51 H 10.684 V 0 Z"
             style="fill:#231f20;fill-opacity:1;fill-rule:nonzero;stroke:none"
             id="path52" /></g><g
           id="g54"
           transform="translate(414.9634,246.1136)"><path
             d="M 0,0 V -4.92 H 9.441 V -7.429 H 0 v -7.428 H -2.957 V 2.51 H 10.684 V 0 Z"
             style="fill:#231f20;fill-opacity:1;fill-rule:nonzero;stroke:none"
             id="path56" /></g><g
           id="g58"
           transform="translate(158.063,409.1991)"><path
             d="M 0,0 V -24.67 H 6.168 V -6.167 H 24.671 V 0 Z"
             style="fill:#231f20;fill-opacity:1;fill-rule:nonzero;stroke:none"
             id="path60" /></g><g
           id="g62"
           transform="translate(260.941,409.1991)"><path
             d="M 0,0 V -24.67 H 2.056 V -2.056 H 24.67 V 0 Z"
             style="fill:#231f20;fill-opacity:1;fill-rule:nonzero;stroke:none"
             id="path64" /></g><g
           id="g66"
           transform="translate(209.502,409.1991)"><path
             d="M 0,0 V -24.67 H 4.112 V -4.112 H 24.67 V 0 Z"
             style="fill:#231f20;fill-opacity:1;fill-rule:nonzero;stroke:none"
             id="path68" /></g><g
           id="g70"
           transform="translate(158.063,285.2582)"><path
             d="M 0,0 V 24.671 H 6.168 V 6.168 H 24.671 V 0 Z"
             style="fill:#231f20;fill-opacity:1;fill-rule:nonzero;stroke:none"
             id="path72" /></g><g
           id="g74"
           transform="translate(260.941,285.2582)"><path
             d="M 0,0 V 24.671 H 2.056 V 2.056 H 24.67 V 0 Z"
             style="fill:#231f20;fill-opacity:1;fill-rule:nonzero;stroke:none"
             id="path76" /></g><g
           id="g78"
           transform="translate(209.502,285.2582)"><path
             d="M 0,0 V 24.67 H 4.112 V 4.112 H 24.67 V 0 Z"
             style="fill:#231f20;fill-opacity:1;fill-rule:nonzero;stroke:none"
             id="path80" /></g><g
           id="g82"
           transform="translate(425.7916,409.1991)"><path
             d="M 0,0 V -24.67 H -6.168 V -6.167 H -24.67 V 0 Z"
             style="fill:#231f20;fill-opacity:1;fill-rule:nonzero;stroke:none"
             id="path84" /></g><g
           id="g86"
           transform="translate(322.9136,409.1991)"><path
             d="M 0,0 V -24.67 H -2.056 V -2.056 H -24.67 V 0 Z"
             style="fill:#231f20;fill-opacity:1;fill-rule:nonzero;stroke:none"
             id="path88" /></g><g
           id="g90"
           transform="translate(374.3531,409.1991)"><path
             d="M 0,0 V -24.67 H -4.112 V -4.112 H -24.671 V 0 Z"
             style="fill:#231f20;fill-opacity:1;fill-rule:nonzero;stroke:none"
             id="path92" /></g><g
           id="g94"
           transform="translate(425.7916,285.2582)"><path
             d="M 0,0 V 24.671 H -6.168 V 6.168 H -24.67 V 0 Z"
             style="fill:#231f20;fill-opacity:1;fill-rule:nonzero;stroke:none"
             id="path96" /></g><g
           id="g98"
           transform="translate(322.9136,285.2582)"><path
             d="M 0,0 V 24.671 H -2.056 V 2.056 H -24.67 V 0 Z"
             style="fill:#231f20;fill-opacity:1;fill-rule:nonzero;stroke:none"
             id="path100" /></g><g
           id="g102"
           transform="translate(374.3531,285.2582)"><path
             d="M 0,0 V 24.67 H -4.112 V 4.112 H -24.671 V 0 Z"
             style="fill:#231f20;fill-opacity:1;fill-rule:nonzero;stroke:none"
             id="path104" /></g></g></g></g></svg>
